  0
SECTION
  2
BLOCKS
  0
ENDSEC
  0
SECTION
  2
ENTITIES
  0
LINE
  8
0
 10
-15
 20
177.9
 11
-31.75
 21
177.9
  0
LINE
  8
0
 10
-31.75
 20
177.9
 11
-31.75
 21
0
  0
LINE
  8
0
 10
-31.75
 20
0
 11
-15
 21
0
  0
LINE
  8
0
 10
-15
 20
0
 11
-15
 21
177.9
  0
LINE
  8
0
 10
77.6239
 20
58.7038
 11
78.5692
 21
58.7932
  0
LINE
  8
0
 10
78.5692
 20
58.7932
 11
79.5069
 21
58.9417
  0
LINE
  8
0
 10
79.5069
 20
58.9417
 11
80.4334
 21
59.1488
  0
LINE
  8
0
 10
80.4334
 20
59.1488
 11
81.3452
 21
59.4137
  0
LINE
  8
0
 10
81.3452
 20
59.4137
 11
82.2385
 21
59.7353
  0
LINE
  8
0
 10
82.2385
 20
59.7353
 11
83.1098
 21
60.1123
  0
LINE
  8
0
 10
83.1098
 20
60.1123
 11
83.9557
 21
60.5434
  0
LINE
  8
0
 10
83.9557
 20
60.5434
 11
84.7729
 21
61.0267
  0
LINE
  8
0
 10
84.7729
 20
61.0267
 11
85.5582
 21
61.5603
  0
LINE
  8
0
 10
85.5582
 20
61.5603
 11
86.3084
 21
62.1422
  0
LINE
  8
0
 10
86.3084
 20
62.1422
 11
87.0206
 21
62.7701
  0
LINE
  8
0
 10
87.0206
 20
62.7701
 11
87.6919
 21
63.4414
  0
LINE
  8
0
 10
87.6919
 20
63.4414
 11
88.3198
 21
64.1536
  0
LINE
  8
0
 10
88.3198
 20
64.1536
 11
88.9017
 21
64.9038
  0
LINE
  8
0
 10
88.9017
 20
64.9038
 11
89.4353
 21
65.689
  0
LINE
  8
0
 10
89.4353
 20
65.689
 11
89.9186
 21
66.5063
  0
LINE
  8
0
 10
89.9186
 20
66.5063
 11
90.3496
 21
67.3522
  0
LINE
  8
0
 10
90.3496
 20
67.3522
 11
90.7267
 21
68.2235
  0
LINE
  8
0
 10
90.7267
 20
68.2235
 11
91.0483
 21
69.1168
  0
LINE
  8
0
 10
91.0483
 20
69.1168
 11
91.3132
 21
70.0285
  0
LINE
  8
0
 10
91.3132
 20
70.0285
 11
91.5203
 21
70.9551
  0
LINE
  8
0
 10
91.5203
 20
70.9551
 11
91.6688
 21
71.8928
  0
LINE
  8
0
 10
91.6688
 20
71.8928
 11
91.7582
 21
72.838
  0
LINE
  8
0
 10
91.7582
 20
72.838
 11
91.788
 21
73.787
  0
LINE
  8
0
 10
91.788
 20
73.787
 11
91.788
 21
104.013
  0
LINE
  8
0
 10
91.788
 20
104.013
 11
91.7582
 21
104.962
  0
LINE
  8
0
 10
91.7582
 20
104.962
 11
91.6688
 21
105.907
  0
LINE
  8
0
 10
91.6688
 20
105.907
 11
91.5203
 21
106.845
  0
LINE
  8
0
 10
91.5203
 20
106.845
 11
91.3132
 21
107.771
  0
LINE
  8
0
 10
91.3132
 20
107.771
 11
91.0483
 21
108.683
  0
LINE
  8
0
 10
91.0483
 20
108.683
 11
90.7267
 21
109.576
  0
LINE
  8
0
 10
90.7267
 20
109.576
 11
90.3496
 21
110.448
  0
LINE
  8
0
 10
90.3496
 20
110.448
 11
89.9186
 21
111.294
  0
LINE
  8
0
 10
89.9186
 20
111.294
 11
89.4353
 21
112.111
  0
LINE
  8
0
 10
89.4353
 20
112.111
 11
88.9017
 21
112.896
  0
LINE
  8
0
 10
88.9017
 20
112.896
 11
88.3198
 21
113.646
  0
LINE
  8
0
 10
88.3198
 20
113.646
 11
87.6919
 21
114.359
  0
LINE
  8
0
 10
87.6919
 20
114.359
 11
87.0206
 21
115.03
  0
LINE
  8
0
 10
87.0206
 20
115.03
 11
86.3084
 21
115.658
  0
LINE
  8
0
 10
86.3084
 20
115.658
 11
85.5582
 21
116.24
  0
LINE
  8
0
 10
85.5582
 20
116.24
 11
84.7729
 21
116.773
  0
LINE
  8
0
 10
84.7729
 20
116.773
 11
83.9557
 21
117.257
  0
LINE
  8
0
 10
83.9557
 20
117.257
 11
83.1098
 21
117.688
  0
LINE
  8
0
 10
83.1098
 20
117.688
 11
82.2385
 21
118.065
  0
LINE
  8
0
 10
82.2385
 20
118.065
 11
81.3452
 21
118.386
  0
LINE
  8
0
 10
81.3452
 20
118.386
 11
80.4334
 21
118.651
  0
LINE
  8
0
 10
80.4334
 20
118.651
 11
79.5069
 21
118.858
  0
LINE
  8
0
 10
79.5069
 20
118.858
 11
78.5692
 21
119.007
  0
LINE
  8
0
 10
78.5692
 20
119.007
 11
77.6239
 21
119.096
  0
LINE
  8
0
 10
77.6239
 20
119.096
 11
76.675
 21
119.126
  0
LINE
  8
0
 10
76.675
 20
119.126
 11
75.726
 21
119.096
  0
LINE
  8
0
 10
75.726
 20
119.096
 11
74.7808
 21
119.007
  0
LINE
  8
0
 10
74.7808
 20
119.007
 11
73.8431
 21
118.858
  0
LINE
  8
0
 10
73.8431
 20
118.858
 11
72.9165
 21
118.651
  0
LINE
  8
0
 10
72.9165
 20
118.651
 11
72.0048
 21
118.386
  0
LINE
  8
0
 10
72.0048
 20
118.386
 11
71.1115
 21
118.065
  0
LINE
  8
0
 10
71.1115
 20
118.065
 11
70.2402
 21
117.688
  0
LINE
  8
0
 10
70.2402
 20
117.688
 11
69.3943
 21
117.257
  0
LINE
  8
0
 10
69.3943
 20
117.257
 11
68.577
 21
116.773
  0
LINE
  8
0
 10
68.577
 20
116.773
 11
67.7918
 21
116.24
  0
LINE
  8
0
 10
67.7918
 20
116.24
 11
67.0416
 21
115.658
  0
LINE
  8
0
 10
67.0416
 20
115.658
 11
66.3294
 21
115.03
  0
LINE
  8
0
 10
66.3294
 20
115.03
 11
65.6581
 21
114.359
  0
LINE
  8
0
 10
65.6581
 20
114.359
 11
65.0302
 21
113.646
  0
LINE
  8
0
 10
65.0302
 20
113.646
 11
64.4483
 21
112.896
  0
LINE
  8
0
 10
64.4483
 20
112.896
 11
63.9147
 21
112.111
  0
LINE
  8
0
 10
63.9147
 20
112.111
 11
63.4314
 21
111.294
  0
LINE
  8
0
 10
63.4314
 20
111.294
 11
63.0003
 21
110.448
  0
LINE
  8
0
 10
63.0003
 20
110.448
 11
62.6233
 21
109.576
  0
LINE
  8
0
 10
62.6233
 20
109.576
 11
62.3017
 21
108.683
  0
LINE
  8
0
 10
62.3017
 20
108.683
 11
62.0368
 21
107.771
  0
LINE
  8
0
 10
62.0368
 20
107.771
 11
61.8297
 21
106.845
  0
LINE
  8
0
 10
61.8297
 20
106.845
 11
61.6812
 21
105.907
  0
LINE
  8
0
 10
61.6812
 20
105.907
 11
61.5918
 21
104.962
  0
LINE
  8
0
 10
61.5918
 20
104.962
 11
61.562
 21
104.013
  0
LINE
  8
0
 10
61.562
 20
104.013
 11
61.562
 21
73.787
  0
LINE
  8
0
 10
61.562
 20
73.787
 11
61.5918
 21
72.838
  0
LINE
  8
0
 10
61.5918
 20
72.838
 11
61.6812
 21
71.8928
  0
LINE
  8
0
 10
61.6812
 20
71.8928
 11
61.8297
 21
70.9551
  0
LINE
  8
0
 10
61.8297
 20
70.9551
 11
62.0368
 21
70.0285
  0
LINE
  8
0
 10
62.0368
 20
70.0285
 11
62.3017
 21
69.1168
  0
LINE
  8
0
 10
62.3017
 20
69.1168
 11
62.6233
 21
68.2235
  0
LINE
  8
0
 10
62.6233
 20
68.2235
 11
63.0003
 21
67.3522
  0
LINE
  8
0
 10
63.0003
 20
67.3522
 11
63.4314
 21
66.5063
  0
LINE
  8
0
 10
63.4314
 20
66.5063
 11
63.9147
 21
65.689
  0
LINE
  8
0
 10
63.9147
 20
65.689
 11
64.4483
 21
64.9038
  0
LINE
  8
0
 10
64.4483
 20
64.9038
 11
65.0302
 21
64.1536
  0
LINE
  8
0
 10
65.0302
 20
64.1536
 11
65.6581
 21
63.4414
  0
LINE
  8
0
 10
65.6581
 20
63.4414
 11
66.3294
 21
62.7701
  0
LINE
  8
0
 10
66.3294
 20
62.7701
 11
67.0416
 21
62.1422
  0
LINE
  8
0
 10
67.0416
 20
62.1422
 11
67.7918
 21
61.5603
  0
LINE
  8
0
 10
67.7918
 20
61.5603
 11
68.577
 21
61.0267
  0
LINE
  8
0
 10
68.577
 20
61.0267
 11
69.3943
 21
60.5434
  0
LINE
  8
0
 10
69.3943
 20
60.5434
 11
70.2402
 21
60.1123
  0
LINE
  8
0
 10
70.2402
 20
60.1123
 11
71.1115
 21
59.7353
  0
LINE
  8
0
 10
71.1115
 20
59.7353
 11
72.0048
 21
59.4137
  0
LINE
  8
0
 10
72.0048
 20
59.4137
 11
72.9165
 21
59.1488
  0
LINE
  8
0
 10
72.9165
 20
59.1488
 11
73.8431
 21
58.9417
  0
LINE
  8
0
 10
73.8431
 20
58.9417
 11
74.7808
 21
58.7932
  0
LINE
  8
0
 10
74.7808
 20
58.7932
 11
75.726
 21
58.7038
  0
LINE
  8
0
 10
75.726
 20
58.7038
 11
76.675
 21
58.674
  0
LINE
  8
0
 10
76.675
 20
58.674
 11
77.6239
 21
58.7038
  0
ENDSEC
  0
SECTION
  2
OBJECTS
  0
DICTIONARY
  0
ENDSEC
  0
EOF
